<?xml version="1.0" encoding="utf-8"?>
<!-- Generator: Adobe Illustrator 19.0.0, SVG Export Plug-In . SVG Version: 6.00 Build 0)  -->
<svg version="1.1" id="Layer_1" xmlns="http://www.w3.org/2000/svg" xmlns:xlink="http://www.w3.org/1999/xlink" x="0px" y="0px"
	 viewBox="0 0 96 96" style="enable-background:new 0 0 96 96;" xml:space="preserve">
<style type="text/css">
	.st0{fill:#333333;}
</style>
<g id="XMLID_1_">
	<path id="XMLID_5_" class="st0" d="M79.2,44.2l-4.4-5.4c-0.7-0.9-1.1-1.9-1.3-3.1l-0.8-6.9c-0.3-2.8-2.6-5.1-5.4-5.4l-6.9-0.8
		c-1.2-0.1-2.3-0.6-3.2-1.3l-5.4-4.4c-2.2-1.8-5.4-1.8-7.6,0l-5.4,4.4c-0.9,0.7-1.9,1.1-3.1,1.3l-6.9,0.8c-2.8,0.3-5.1,2.6-5.4,5.4
		l-0.8,6.9c-0.1,1.2-0.6,2.3-1.3,3.2l-4.4,5.4c-1.8,2.2-1.8,5.4,0,7.6l4.4,5.4c0.7,0.9,1.1,1.9,1.3,3.1l0.8,6.9
		c0.3,2.8,2.6,5.1,5.4,5.4l6.9,0.8c1.2,0.1,2.3,0.6,3.2,1.3l5.4,4.4c2.2,1.8,5.4,1.8,7.6,0l5.4-4.4c0.9-0.7,1.9-1.1,3.1-1.3l6.9-0.8
		c2.8-0.3,5.1-2.6,5.4-5.4l0.8-6.9c0.1-1.2,0.6-2.3,1.3-3.2l4.4-5.4C80.9,49.6,80.9,46.4,79.2,44.2z M41.9,64.3L27.7,50.1l6.1-6.1
		l8.1,8.1l20.3-20.3l6.1,6.3L41.9,64.3z"/>
</g>
</svg>
