<?xml version="1.0" encoding="utf-8"?>
<!-- Generator: Adobe Illustrator 20.1.0, SVG Export Plug-In . SVG Version: 6.00 Build 0)  -->
<svg version="1.1" id="Layer_1" xmlns="http://www.w3.org/2000/svg" xmlns:xlink="http://www.w3.org/1999/xlink" x="0px" y="0px"
	 viewBox="0 0 461.5 96" style="enable-background:new 0 0 461.5 96;" xml:space="preserve">
<style type="text/css">
	.st0{fill:url(#SVGID_1_);}
	.st1{fill:url(#SVGID_2_);}
	.st2{fill:#383352;}
</style>
<g>
	<g>
		
			<linearGradient id="SVGID_1_" gradientUnits="userSpaceOnUse" x1="-5524.0601" y1="-4.6073" x2="-5479.395" y2="55.1104" gradientTransform="matrix(-1 0 0 1 -5447.4199 0)">
			<stop  offset="0.2915" style="stop-color:#EE2A7B"/>
			<stop  offset="0.4852" style="stop-color:#CB2D82"/>
			<stop  offset="0.7217" style="stop-color:#A7308A"/>
			<stop  offset="0.9007" style="stop-color:#913290"/>
			<stop  offset="1" style="stop-color:#883293"/>
		</linearGradient>
		<path class="st0" d="M5.2,22.5C13.9,3.9,36-4.2,54.7,4.5c18.7,8.7,26.7,30.9,18,49.5c-4.4,9.3-12.1,16-21,19.3L57,88
			c0.8,2.4-0.5,5.1-2.9,6c-1.5,0.5-3.1,0.3-4.3-0.5l0,0L16.7,68.2c-0.1,0-0.1-0.1-0.2-0.1l-0.7-0.5l0,0C2.6,57.1-2.3,38.5,5.2,22.5z
			"/>
		<g>
			<linearGradient id="SVGID_2_" gradientUnits="userSpaceOnUse" x1="102.3943" y1="76.305" x2="58.5123" y2="5.5256">
				<stop  offset="0" style="stop-color:#883293"/>
				<stop  offset="0.1122" style="stop-color:#913290"/>
				<stop  offset="0.3145" style="stop-color:#A7308A"/>
				<stop  offset="0.5818" style="stop-color:#CB2D82"/>
				<stop  offset="0.8006" style="stop-color:#EE2A7B"/>
			</linearGradient>
			<path class="st1" d="M119.7,37.9c-5.3-16.6-23-25.8-39.7-20.5c-1.7,0.5-3.3,1.2-4.8,2c5,11.2,5.3,24.5-0.3,36.5
				c-2.2,4.7-5.2,9-8.8,12.6c2.6,2.9,5.7,5.3,9.1,7l-6.1,11.7l0,0c-0.9,2-0.2,4.3,1.8,5.3c1.2,0.6,2.5,0.6,3.6,0l0,0L105,75
				c0.1,0,0.1-0.1,0.2-0.1l0.7-0.4l0,0C118.2,67.2,124.2,52.1,119.7,37.9z"/>
		</g>
	</g>
	<g>
		<path class="st2" d="M158.3,42.8c-0.1-0.2-0.1-0.5-0.1-0.8c0-2.6,2.9-4.5,7.3-4.5c4.1,0,8.1,1.3,11,3.2c1.1,0.7,2,1.4,2.7,2.2
			l1.5-2.7l3.4-5.9c-4.6-3.6-10.8-6.3-18.6-6.3c-12.3,0-19,6.8-19,14.6c0,0.6,0,1.1,0.1,1.6c1.6,16.2,27.3,10.6,27.3,17.9
			c0,2.9-2.5,4.9-7.8,4.9c-5.8,0-12.6-3.2-16-6.4l-5.3,8.8c4.9,4.5,12.7,7.2,20.7,7.2c12.8,0,20.1-6.2,20.1-14.8
			C185.7,43.9,160.3,48.5,158.3,42.8z"/>
		<path class="st2" d="M253.2,31.7c-7.8-5.3-20.6-5.5-28.4-0.2c0,0,0,0-0.1,0c0,0,0,0-0.1,0c-10.5-7.1-29.9-4.4-34.2,7.4
			c-0.5,1.5-0.8,3.1-0.8,4.9v31.7h12.6V43.8c0-8.3,16.2-8.4,16.2,0l0.1,0l0,0v31.7h12.6V43.8l0,0c0-8.4,16.2-8.3,16.2,0v31.7h12.6
			V43.8C259.9,38.4,257.2,34.4,253.2,31.7z"/>
		<path class="st2" d="M394,38.8c4.2,0,7.6,1.7,9.8,5l8-7.5c-3.1-4.2-8.8-8.3-18.3-8.3c-14.2,0-24.5,10.1-24.5,24.3
			c0,14.3,10.4,24.3,24.5,24.3c9.5,0,15.2-4.2,18.3-8.4l-8-7.5c-2.2,3.2-5.6,5.1-9.8,5.1c-7.4,0-12.6-5.5-12.6-13.5
			S386.7,38.8,394,38.8z"/>
		<path class="st2" d="M428.3,29.1l0-18.4c-3.8,0.4-8,0.9-12.5,1.4c0,5.8,0,23.1,0,23.1v40.2h12.5l0-32.7c1.6-7.3,18.5-7,18.5,0.9
			v31.8h12.6V43.9C459.4,29.9,442.8,24.9,428.3,29.1z"/>
		<path class="st2" d="M288.1,28c-15.2,0-24.4,11.1-24.4,24.3s9.2,24.3,24.4,24.3c15.3,0,24.5-11.2,24.5-24.3S303.5,28,288.1,28z
			 M288.1,65.8c-7.6,0-11.8-6.2-11.8-13.5c0-7.2,4.2-13.4,11.8-13.4c7.7,0,11.9,6.2,11.9,13.4C300,59.5,295.8,65.8,288.1,65.8z"/>
		<path class="st2" d="M341.3,28c-15.2,0-24.4,11.1-24.4,24.3s9.2,24.3,24.4,24.3c15.3,0,24.5-11.2,24.5-24.3S356.6,28,341.3,28z
			 M341.3,65.8c-7.6,0-11.8-6.2-11.8-13.5c0-7.2,4.2-13.4,11.8-13.4c7.7,0,11.9,6.2,11.9,13.4C353.1,59.5,348.9,65.8,341.3,65.8z"/>
	</g>
</g>
</svg>
