<svg width="200" height="200" viewBox="0 0 200 200" xmlns="http://www.w3.org/2000/svg" xmlns:xlink="http://www.w3.org/1999/xlink"><title>Tile 1</title><defs><path id="a" d="M85 36.151L90.59 26h11.825l5.775 10.151-5.775 9.805H90.59z"/><mask id="g" x="0" y="0" width="23.19" height="19.956" fill="#fff"><use xlink:href="#a"/></mask><path id="b" d="M149 51h12v12h-12z"/><mask id="h" x="0" y="0" width="12" height="12" fill="#fff"><use xlink:href="#b"/></mask><path id="c" d="M38.662 50.89l6.45-4.988 7.22 4.705-2.57 8.254h-8.717z"/><mask id="i" x="0" y="0" width="13.67" height="12.96" fill="#fff"><use xlink:href="#c"/></mask><path id="d" d="M129.226 3.009l16.14 5.909-11.775 8.225z"/><mask id="j" x="0" y="0" width="16.14" height="14.134" fill="#fff"><use xlink:href="#d"/></mask><path id="e" d="M46.226 98.009l17.14 6.275-12.505 8.735z"/><mask id="k" x="0" y="0" width="17.14" height="15.01" fill="#fff"><use xlink:href="#e"/></mask><path id="f" d="M4.885 159.579l12.816 23.641-16.15-2.706z"/><mask id="l" x="0" y="0" width="16.15" height="23.641" fill="#fff"><use xlink:href="#f"/></mask></defs><g transform="translate(10 8)" fill="none" fill-rule="evenodd"><circle stroke="#000" cx="176" cy="12" r="4"/><path d="M20.5.5l23 11m-29 84l-3.79 10.377M27.037 131.4l5.898 2.203-3.46 5.947 6.072 2.392-3.933 5.758m128.733 35.37l.693-9.316 10.292.052.416-9.222 9.274.332M.5 48.5s6.131 6.413 6.847 14.805c.715 8.393-2.52 14.806-2.52 14.806M124.555 90s-7.444 0-13.67 6.192c-6.227 6.192-4.838 12.012-4.838 12.012m2.24 68.626s-4.026-9.025-18.145-9.025-18.145 5.7-18.145 5.7" stroke="#000" stroke-linecap="square"/><use stroke="#000" mask="url(#g)" stroke-width="2" xlink:href="#a"/><use stroke="#000" mask="url(#h)" stroke-width="2" xlink:href="#b"/><circle fill="#000" cx="71.5" cy="7.5" r="1.5"/><circle fill="#000" cx="170.5" cy="95.5" r="1.5"/><circle fill="#000" cx="81.5" cy="134.5" r="1.5"/><circle fill="#000" cx="13.5" cy="23.5" r="1.5"/><path fill="#000" d="M93 71h3v3h-3zm33 84h3v3h-3zm-85 18h3v3h-3z"/><use stroke="#000" mask="url(#i)" stroke-width="2" xlink:href="#c"/><use stroke="#000" mask="url(#j)" stroke-width="2" xlink:href="#d"/><use stroke="#000" mask="url(#k)" stroke-width="2" xlink:href="#e"/><use stroke="#000" mask="url(#l)" stroke-width="2" xlink:href="#f"/><path d="M149.05 127.468s-.51 2.183.995 3.366c1.56 1.226 8.642-1.895 3.967-7.785-2.367-2.477-6.5-3.226-9.33 0-5.208 5.936 0 17.51 11.61 13.73 12.458-6.257 5.633-21.656-5.073-22.654-6.602-.606-14.043 1.756-16.157 10.268-1.718 6.92 1.584 17.387 12.45 20.476 10.866 3.09 19.331-4.31 19.331-4.31" stroke="#000" stroke-linecap="square"/></g></svg>